<svg width="82" height="80" viewBox="0 0 82 80" fill="none" xmlns="http://www.w3.org/2000/svg">
<g clip-path="url(#clip0_4_8)">
<path d="M82 0H0V80H82V0Z" fill="#FF7900"/>
<path d="M32.4674 71.6152C31.2867 72.3856 29.8971 72.7944 28.4767 72.7893C28.0026 72.8223 27.5268 72.7566 27.0806 72.5968C26.6345 72.437 26.2282 72.1865 25.8886 71.8621C25.549 71.5376 25.2839 71.1466 25.1108 70.7147C24.9377 70.2829 24.8605 69.8201 24.8844 69.357C24.8844 66.7124 27.3772 65.3105 32.5135 64.7444V64.0884C32.5135 63.229 31.8442 62.7314 30.6103 62.7314C30.0439 62.7159 29.4816 62.8306 28.9691 63.0663C28.4565 63.302 28.008 63.6522 27.6599 64.0884L25.5107 62.893C26.6405 61.3534 28.3617 60.5846 30.6743 60.5867C33.8302 60.5867 35.5865 61.9192 35.5865 64.0914V72.6575H32.7618L32.4674 71.6152ZM28.0004 69.1291C27.9848 69.3235 28.0102 69.5189 28.0751 69.7034C28.1399 69.8878 28.2429 70.0572 28.3776 70.2012C28.5123 70.3453 28.6758 70.4608 28.8581 70.5408C29.0404 70.6207 29.2375 70.6633 29.4373 70.6659C30.5468 70.6254 31.6005 70.181 32.3909 69.4202V66.6263C29.4131 66.9951 28.0011 67.7402 28.0011 69.1406L28.0004 69.1291Z" fill="white"/>
<path d="M37.2646 61.1535L39.9019 60.7969L40.1909 62.1988C41.6802 61.1321 42.8617 60.5691 44.351 60.5691C46.8438 60.5691 48.1269 61.8598 48.1269 64.4152V72.6438H44.943V64.9569C44.943 63.5093 44.5525 62.8601 43.4076 62.8601C42.2852 62.9356 41.2276 63.4011 40.4267 64.1721V72.6483H37.2646V61.1535Z" fill="white"/>
<path d="M66.958 72.8671C63.3875 72.8671 61.2571 70.6294 61.2571 66.7421C61.2571 62.8549 63.4063 60.5707 66.9057 60.5707C70.4052 60.5707 72.4778 62.7421 72.4778 66.5852C72.4778 66.7886 72.4536 66.9928 72.4536 67.184H64.3887C64.4129 69.4217 65.3649 70.5509 67.2407 70.5509C67.7939 70.5626 68.3403 70.4299 68.8233 70.1666C69.3063 69.9032 69.7085 69.5188 69.9881 69.053L72.3247 70.317C71.2962 71.9863 69.4477 72.8671 66.958 72.8671ZM69.3462 65.1817C69.3863 64.8538 69.3518 64.5213 69.2453 64.2078C69.1387 63.8943 68.9627 63.6076 68.7297 63.368C68.4967 63.1285 68.2125 62.9419 67.8973 62.8216C67.582 62.7013 67.2435 62.6502 66.9057 62.672C65.4688 62.672 64.5691 63.5703 64.4496 65.1817H69.3462Z" fill="white"/>
<path d="M10.7115 72.9958C7.55883 72.9958 4.71851 71.0369 4.71851 66.7596C4.71851 62.4823 7.55805 60.5333 10.7115 60.5333C13.865 60.5333 16.7038 62.4952 16.7038 66.7695C16.7038 71.0438 13.8611 72.9958 10.7115 72.9958ZM10.7115 63.1535C8.33197 63.1535 7.88995 65.2503 7.88995 66.7474C7.88995 68.2446 8.33197 70.3566 10.7115 70.3566C13.0911 70.3566 13.5331 68.2598 13.5331 66.7474C13.5331 65.235 13.0911 63.1535 10.7115 63.1535Z" fill="white"/>
<path d="M17.7612 60.8328H20.7913V62.2225C21.2036 61.7423 21.7124 61.3497 22.2864 61.069C22.8604 60.7883 23.4873 60.6254 24.1283 60.5905C24.2659 60.5869 24.4035 60.5938 24.5399 60.6111V63.5284H24.3837C22.996 63.5284 21.4793 63.738 21.0069 64.7894V72.6484H17.7612V60.8328Z" fill="white"/>
<path d="M55.0893 70.1181C57.5102 70.0998 57.7109 67.7014 57.7109 66.1318C57.7109 64.2865 56.7902 62.7833 55.0674 62.7833C53.9225 62.7833 52.6464 63.5977 52.6464 66.2606C52.6457 67.7219 52.7503 70.1356 55.0893 70.1181ZM60.7746 60.797V71.984C60.7746 73.9612 60.6184 77.2107 54.8464 77.2465C52.4668 77.2465 50.2599 76.3322 49.8178 74.3025L52.9643 73.808C53.0963 74.3894 53.4586 74.9699 55.2423 74.9699C56.8972 74.9699 57.6984 74.1974 57.6984 72.349V70.9775L57.6555 70.9356C57.3709 71.4948 56.9204 71.9574 56.3625 72.2632C55.8046 72.569 55.1653 72.7037 54.5278 72.6499C51.7062 72.6499 49.4805 70.7391 49.4805 66.7436C49.4805 62.7932 51.7741 60.5829 54.3497 60.5798C56.766 60.5798 57.6625 61.6465 57.8679 62.2149H57.8312L58.092 60.8008L60.7746 60.797Z" fill="white"/>
<path d="M73.7304 58.0114H72.4809V61.3958H71.8179V58.0114H70.5684V57.4902H73.7367L73.7304 58.0114ZM78.9495 61.3958H78.2896V58.1378H78.2701L76.9589 61.3996H76.5411L75.2299 58.1378H75.2111V61.3996H74.5512V57.5062H75.5704L76.7644 60.4716L77.9406 57.5062H78.9503L78.9495 61.3958Z" fill="white"/>
</g>
<defs>
<clipPath id="clip0_4_8">
<rect width="82" height="80" fill="white"/>
</clipPath>
</defs>
</svg>
